<?xml version="1.0" encoding="UTF-8" standalone="no"?>
<svg
   class="logo__element"
   viewBox="0 0 400 194.62956"
   fill="none"
   version="1.1"
   style="color:#0000ee;text-decoration:none;text-decoration-line:none;text-decoration-style:solid;text-decoration-color:#0000ee;inline-size:124px;fill:none;-webkit-text-fill-color:rgb(0, 0, 238);-webkit-text-stroke-color:rgb(0, 0, 238)"
   id="svg32"
   sodipodi:docname="Akad University Logo 24.02.2023.svg"
   width="400"
   height="194.62956"
   inkscape:version="1.1.1 (3bf5ae0d25, 2021-09-20)"
   xmlns:inkscape="http://www.inkscape.org/namespaces/inkscape"
   xmlns:sodipodi="http://sodipodi.sourceforge.net/DTD/sodipodi-0.dtd"
   xmlns="http://www.w3.org/2000/svg"
   xmlns:svg="http://www.w3.org/2000/svg">
  <defs
     id="defs36" />
  <sodipodi:namedview
     id="namedview34"
     pagecolor="#ffffff"
     bordercolor="#111111"
     borderopacity="1"
     inkscape:pageshadow="0"
     inkscape:pageopacity="0"
     inkscape:pagecheckerboard="1"
     showgrid="false"
     inkscape:zoom="3.1906765"
     inkscape:cx="200.1143"
     inkscape:cy="97.314785"
     inkscape:window-width="1600"
     inkscape:window-height="829"
     inkscape:window-x="-8"
     inkscape:window-y="-8"
     inkscape:window-maximized="1"
     inkscape:current-layer="svg32" />
  <path
     class="logo__symbol"
     fill="hsl(var(--color-green))"
     d="M 201.97953,10.636053 146.16889,35.778097 152.68262,50.112382 178.19186,39.476444 143.75883,107.85059 68.321299,0 0,97.902851 h 112.6252 l 32.85519,45.238519 48.55068,-95.637763 6.34145,26.374877 15.20813,-3.440082 z M 37.905343,78.264726 68.34986,34.746255 98.823242,78.264726 Z"
     style="d:path('M 67.4185 3.44405 L 49.0501 11.7188 L 51.1939 16.4365 L 59.5895 12.936 L 48.2569 35.4393 L 23.4289 -0.056488 L 0.942993 32.1653 H 38.0102 L 48.8235 47.0542 L 64.8025 15.5779 L 66.8896 24.2584 L 71.8949 23.1262 L 67.4185 3.44405 Z M 13.4184 25.702 L 23.4383 11.3792 L 33.4677 25.702 H 13.4184 Z');color:#0000ee;text-decoration:none;text-decoration-line:none;text-decoration-style:solid;text-decoration-color:#0000ee;display:inline;fill:#13aa39;stroke-width:3.03841;-webkit-text-fill-color:rgb(0, 0, 238);-webkit-text-stroke-color:rgb(0, 0, 238)"
     id="path2" />
  <path
     class="logo__text"
     fill="hsl(var(--color-black))"
     d="m 193.83023,96.78411 h -0.83192 l -22.95545,46.35695 h 8.1493 l 3.75881,-8.08428 h 22.06612 l 3.61509,8.08428 h 8.40758 z m -9.18206,32.16608 8.35014,-18.23317 8.14931,18.23317 z"
     style="d:path('M 64.7364 31.7971 H 64.4626 L 56.9075 47.0541 H 59.5896 L 60.8267 44.3934 H 68.0891 L 69.2789 47.0541 H 72.046 L 64.7364 31.7971 Z M 61.7144 42.3836 L 64.4626 36.3827 L 67.1447 42.3836 H 61.7144 Z');color:#0000ee;text-decoration:none;text-decoration-line:none;text-decoration-style:solid;text-decoration-color:#0000ee;display:inline;fill:#242833;stroke-width:3.03841;-webkit-text-fill-color:rgb(0, 0, 238);-webkit-text-stroke-color:rgb(0, 0, 238)"
     id="path4" />
  <path
     class="logo__text"
     fill="hsl(var(--color-black))"
     d="m 256.98652,143.14106 h -9.75602 l -18.90951,-21.64469 v 21.64469 h -8.09188 V 98.189069 h 8.09188 v 20.899061 l 16.67143,-20.899061 h 9.44032 l -18.01987,21.587261 z"
     style="d:path('M 85.5224 47.0541 H 82.3115 L 76.088 39.9304 V 47.0541 H 73.4248 V 32.2595 H 76.088 V 39.1378 L 81.5749 32.2595 H 84.6819 L 78.7512 39.3643 L 85.5224 47.0541 Z');color:#0000ee;text-decoration:none;text-decoration-line:none;text-decoration-style:solid;text-decoration-color:#0000ee;display:inline;fill:#242833;stroke-width:3.03841;-webkit-text-fill-color:rgb(0, 0, 238);-webkit-text-stroke-color:rgb(0, 0, 238)"
     id="path6" />
  <path
     class="logo__text"
     fill="hsl(var(--color-black))"
     d="m 282.23749,96.78411 h -0.83222 l -22.95545,46.35695 h 8.1493 l 3.75912,-8.08428 h 22.06581 l 3.6154,8.08428 h 8.40878 z m -9.18206,32.16608 8.34984,-18.23317 8.14931,18.23317 z"
     style="d:path('M 93.833 31.7971 H 93.5591 L 86.004 47.0541 H 88.6861 L 89.9233 44.3934 H 97.1856 L 98.3755 47.0541 H 101.143 L 93.833 31.7971 Z M 90.811 42.3836 L 93.5591 36.3827 L 96.2412 42.3836 H 90.811 Z');color:#0000ee;text-decoration:none;text-decoration-line:none;text-decoration-style:solid;text-decoration-color:#0000ee;display:inline;fill:#242833;stroke-width:3.03841;-webkit-text-fill-color:rgb(0, 0, 238);-webkit-text-stroke-color:rgb(0, 0, 238)"
     id="path8" />
  <path
     class="logo__text"
     fill="hsl(var(--color-black))"
     d="m 333.13989,100.99838 c -5.3172,-2.048798 -11.0051,-2.966701 -16.69907,-2.694763 h -9.29752 v 44.837443 h 11.1631 c 9.18206,0 15.92428,-2.09285 20.71585,-6.36424 2.19676,-2.07159 3.93473,-4.58161 5.0954,-7.36753 1.16067,-2.78561 1.72278,-5.78451 1.64986,-8.80165 0.15496,-4.16626 -0.97229,-8.27996 -3.22983,-11.78628 -2.25753,-3.50632 -5.53597,-6.23663 -9.39779,-7.82298 z m -13.88551,35.1188 h -4.01981 V 105.3275 h 2.8713 c 12.3663,0 19.57036,5.73347 19.57036,15.28014 0,9.54667 -7.0886,15.50954 -18.42185,15.50954 z"
     style="d:path('M 110.586 33.1841 C 108.836 32.5098 106.964 32.2077 105.09 32.2972 H 102.03 V 47.0541 H 105.704 C 108.726 47.0541 110.945 46.3653 112.522 44.9595 C 113.245 44.2777 113.817 43.4516 114.199 42.5347 C 114.581 41.6179 114.766 40.6309 114.742 39.6379 C 114.793 38.2667 114.422 36.9128 113.679 35.7588 C 112.936 34.6048 111.857 33.7062 110.586 33.1841 Z M 106.016 44.7424 H 104.693 V 34.6089 H 105.638 C 109.708 34.6089 112.079 36.4959 112.079 39.6379 C 112.079 42.7799 109.746 44.7424 106.016 44.7424 Z');color:#0000ee;text-decoration:none;text-decoration-line:none;text-decoration-style:solid;text-decoration-color:#0000ee;display:inline;fill:#242833;stroke-width:3.03841;-webkit-text-fill-color:rgb(0, 0, 238);-webkit-text-stroke-color:rgb(0, 0, 238)"
     id="path10" />
  <path
     class="logo__text"
     fill="hsl(var(--color-black))"
     d="m 191.21902,168.45523 v 14.33429 c 0.20297,3.17452 -0.82432,6.3056 -2.86947,8.74392 -1.05524,1.01665 -2.31465,1.79782 -3.6947,2.29217 -1.38004,0.49405 -2.84941,0.69002 -4.31089,0.57456 -1.45448,0.0951 -2.91261,-0.12457 -4.27443,-0.64414 -1.36181,-0.51957 -2.5954,-1.32657 -3.61661,-2.366 -1.98286,-2.41645 -3.00438,-5.47855 -2.86917,-8.60051 v -14.33429 h 2.86917 v 14.73566 c -0.18079,2.35416 0.53658,4.68947 2.00869,6.53652 0.73864,0.76386 1.63405,1.35938 2.62457,1.74526 0.99052,0.38588 2.05275,0.55329 3.11407,0.4907 5.27983,0 7.9199,-3.35409 7.9199,-10.06259 v -13.44555 z"
     style="d:path('M 63.877 55.3855 V 60.1032 C 63.9438 61.148 63.6057 62.1785 62.9326 62.981 C 62.5853 63.3156 62.1708 63.5727 61.7166 63.7354 C 61.2624 63.898 60.7788 63.9625 60.2978 63.9245 C 59.8191 63.9558 59.3392 63.8835 58.891 63.7125 C 58.4428 63.5415 58.0368 63.2759 57.7007 62.9338 C 57.0481 62.1385 56.7119 61.1307 56.7564 60.1032 V 55.3855 H 57.7007 V 60.2353 C 57.6412 61.0101 57.8773 61.7787 58.3618 62.3866 C 58.6049 62.638 58.8996 62.834 59.2256 62.961 C 59.5516 63.088 59.9012 63.1431 60.2505 63.1225 C 61.9882 63.1225 62.8571 62.0186 62.8571 59.8107 V 55.3855 H 63.877 Z');color:#0000ee;text-decoration:none;text-decoration-line:none;text-decoration-style:solid;text-decoration-color:#0000ee;display:inline;fill:#242833;stroke-width:3.03841;-webkit-text-fill-color:rgb(0, 0, 238);-webkit-text-stroke-color:rgb(0, 0, 238)"
     id="path12" />
  <path
     class="logo__text"
     fill="hsl(var(--color-black))"
     d="m 221.97923,168.45523 v 26.17434 h -0.65994 l -18.47928,-20.44056 v 19.58069 h -2.72575 v -26.17434 h 0.63107 l 18.50784,20.44057 v -19.5807 z"
     style="d:path('M 74.0008 55.3855 V 64 H 73.7836 L 67.7017 57.2726 V 63.717 H 66.8046 V 55.1025 H 67.0123 L 73.1036 61.8299 V 55.3855 H 74.0008 Z');color:#0000ee;text-decoration:none;text-decoration-line:none;text-decoration-style:solid;text-decoration-color:#0000ee;display:inline;fill:#242833;stroke-width:3.03841;-webkit-text-fill-color:rgb(0, 0, 238);-webkit-text-stroke-color:rgb(0, 0, 238)"
     id="path14" />
  <path
     class="logo__text"
     fill="hsl(var(--color-black))"
     d="m 233.91621,168.45523 h -3.04144 v 25.31417 h 3.04144 z"
     style="d:path('M 77.9295 55.3855 H 76.9285 V 63.7169 H 77.9295 V 55.3855 Z');color:#0000ee;text-decoration:none;text-decoration-line:none;text-decoration-style:solid;text-decoration-color:#0000ee;display:inline;fill:#242833;stroke-width:3.03841;-webkit-text-fill-color:rgb(0, 0, 238);-webkit-text-stroke-color:rgb(0, 0, 238)"
     id="path16" />
  <path
     class="logo__text"
     fill="hsl(var(--color-black))"
     d="m 264.24588,168.45523 -12.48207,26.17434 h -0.51653 l -11.73584,-26.17434 h 3.27114 l 8.89524,20.15405 9.58404,-20.15405 z"
     style="d:path('M 87.9116 55.3855 L 83.8035 64 H 83.6335 L 79.771 55.3855 H 80.8476 L 83.7752 62.0186 L 86.9295 55.3855 H 87.9116 Z');color:#0000ee;text-decoration:none;text-decoration-line:none;text-decoration-style:solid;text-decoration-color:#0000ee;display:inline;fill:#242833;stroke-width:3.03841;-webkit-text-fill-color:rgb(0, 0, 238);-webkit-text-stroke-color:rgb(0, 0, 238)"
     id="path18" />
  <path
     class="logo__text"
     fill="hsl(var(--color-black))"
     d="m 284.36073,191.1035 v 2.6659 h -14.94956 v -25.31417 h 14.80615 v 2.6662 h -11.79327 v 8.11315 h 10.30111 v 2.6662 h -10.30111 v 9.20272 z"
     style="d:path('M 94.5318 62.8395 V 63.7169 H 89.6116 V 55.3855 H 94.4846 V 56.263 H 90.6032 V 58.9332 H 93.9935 V 59.8107 H 90.6032 V 62.8395 H 94.5318 Z');color:#0000ee;text-decoration:none;text-decoration-line:none;text-decoration-style:solid;text-decoration-color:#0000ee;display:inline;fill:#242833;stroke-width:3.03841;-webkit-text-fill-color:rgb(0, 0, 238);-webkit-text-stroke-color:rgb(0, 0, 238)"
     id="path20" />
  <path
     class="logo__text"
     fill="hsl(var(--color-black))"
     d="m 302.55227,182.78952 c 1.87166,-0.37494 3.59443,-1.28069 4.96475,-2.60878 1.09383,-1.27157 1.65897,-2.91292 1.57694,-4.58708 0.0638,-0.99812 -0.10939,-1.99684 -0.51046,-2.91413 -0.39803,-0.91699 -1.00875,-1.72643 -1.78354,-2.36084 -1.92027,-1.35817 -4.25073,-2.01599 -6.60002,-1.86346 h -7.94817 v 25.31417 h 3.01288 v -10.34911 h 4.13193 l 9.03804,10.34911 h 3.75851 z m -5.73803,-1.66262 h -1.40617 v -10.34942 h 3.12773 c 0.88965,0 1.63557,0 2.26695,0 0.56758,0.0201 1.13272,0.0775 1.69179,0.17198 0.43449,0.0909 0.85683,0.22514 1.26398,0.40137 0.34637,0.15223 0.67452,0.34456 0.97532,0.57335 0.50134,0.44118 0.89633,0.99052 1.1546,1.6061 0.25826,0.61588 0.37372,1.28221 0.33726,1.94883 0.0638,1.01483 -0.20661,2.02267 -0.77479,2.86674 -0.64111,0.83556 -1.50705,1.4718 -2.49757,1.83489 -0.84772,0.34425 -1.73493,0.59431 -2.63855,0.74532 -1.20716,0.16468 -2.42587,0.23183 -3.64427,0.20084 z"
     style="d:path('M 100.519 60.1032 C 101.135 59.9798 101.702 59.6817 102.153 59.2446 C 102.513 58.8261 102.699 58.2859 102.672 57.7349 C 102.693 57.4064 102.636 57.0777 102.504 56.7758 C 102.373 56.474 102.172 56.2076 101.917 55.9988 C 101.285 55.5518 100.518 55.3353 99.7448 55.3855 H 97.1289 V 63.7169 H 98.1205 V 60.3108 H 99.4804 L 102.455 63.7169 H 103.692 L 100.519 60.1032 Z M 98.6305 59.556 H 98.1677 V 56.1498 H 99.1971 C 99.4899 56.1498 99.7354 56.1498 99.9432 56.1498 C 100.13 56.1564 100.316 56.1753 100.5 56.2064 C 100.643 56.2363 100.782 56.2805 100.916 56.3385 C 101.03 56.3886 101.138 56.4519 101.237 56.5272 C 101.402 56.6724 101.532 56.8532 101.617 57.0558 C 101.702 57.2585 101.74 57.4778 101.728 57.6972 C 101.749 58.0312 101.66 58.3629 101.473 58.6407 C 101.262 58.9157 100.977 59.1251 100.651 59.2446 C 100.372 59.3579 100.08 59.4402 99.7826 59.4899 C 99.3853 59.5441 98.9842 59.5662 98.5832 59.556 H 98.6305 Z');color:#0000ee;text-decoration:none;text-decoration-line:none;text-decoration-style:solid;text-decoration-color:#0000ee;display:inline;fill:#242833;stroke-width:3.03841;-webkit-text-fill-color:rgb(0, 0, 238);-webkit-text-stroke-color:rgb(0, 0, 238)"
     id="path22" />
  <path
     class="logo__text"
     fill="hsl(var(--color-black))"
     d="m 333.39816,187.46228 c 0.003,0.98718 -0.20357,1.96342 -0.60161,2.86704 -0.39499,0.87506 -0.98444,1.64924 -1.72277,2.26483 -0.80822,0.6411 -1.73189,1.11843 -2.72545,1.40465 -1.16979,0.3558 -2.39123,0.5299 -3.6157,0.51592 -2.62518,-0.006 -5.20175,-0.71949 -7.45929,-2.06399 L 316.93,189.18262 c 2.26361,1.6693 4.98906,2.60027 7.80263,2.6659 1.47059,0.0848 2.92598,-0.35185 4.10488,-1.23268 0.49526,-0.3959 0.89329,-0.90332 1.15764,-1.48122 0.26434,-0.5776 0.38891,-1.20959 0.36157,-1.84431 0.0213,-0.63564 -0.10939,-1.26732 -0.38284,-1.84128 -0.2765,-0.57395 -0.68668,-1.07316 -1.1941,-1.45539 l -0.6016,-0.43024 -0.74745,-0.42994 c -0.28561,-0.14341 -0.65933,-0.34394 -1.14852,-0.54478 l -1.77746,-0.83131 -2.03877,-0.94616 -1.34905,-0.68789 -0.94495,-0.57335 c -0.27953,-0.16286 -0.5378,-0.35489 -0.77479,-0.57335 -0.69884,-0.57973 -1.24879,-1.31654 -1.60732,-2.15028 -0.38891,-0.90514 -0.58337,-1.88168 -0.57426,-2.86673 -0.0547,-0.89968 0.10331,-1.79935 0.46488,-2.6264 0.35853,-0.82675 0.90544,-1.55749 1.60124,-2.13266 1.64074,-1.25152 3.67647,-1.87226 5.73955,-1.7486 1.05432,-0.007 2.10561,0.12822 3.12651,0.40137 1.16068,0.3163 2.27577,0.76872 3.3301,1.34723 v 3.29698 l -0.51653,-0.34395 -0.4588,-0.34425 c -1.63466,-1.08623 -3.54886,-1.67416 -5.51167,-1.69148 -1.23663,-0.0708 -2.46718,0.261 -3.50024,0.94616 -0.41626,0.34516 -0.74441,0.78634 -0.95406,1.28555 -0.20965,0.49921 -0.29473,1.04186 -0.24915,1.58149 -0.0334,0.53263 0.0516,1.06617 0.24915,1.56204 0.20053,0.49556 0.50437,0.9413 0.89633,1.30469 l 0.71706,0.57335 0.80518,0.48736 1.20321,0.60191 1.75316,0.74562 1.86254,0.80244 1.34905,0.65964 1.00572,0.60191 c 0.28561,0.17197 0.57425,0.40137 0.89025,0.63077 0.77175,0.65812 1.39159,1.48092 1.80481,2.40794 0.40107,1.00298 0.59553,2.07493 0.57426,3.15356 z"
     style="d:path('M 110.671 61.6411 C 110.672 61.966 110.604 62.2873 110.473 62.5847 C 110.343 62.8727 110.149 63.1275 109.906 63.3301 C 109.64 63.5411 109.336 63.6982 109.009 63.7924 C 108.624 63.9095 108.222 63.9668 107.819 63.9622 C 106.955 63.9601 106.107 63.7254 105.364 63.2829 L 105.251 62.2073 C 105.996 62.7567 106.893 63.0631 107.819 63.0847 C 108.303 63.1126 108.782 62.9689 109.17 62.679 C 109.333 62.5487 109.464 62.3817 109.551 62.1915 C 109.638 62.0014 109.679 61.7934 109.67 61.5845 C 109.677 61.3753 109.634 61.1674 109.544 60.9785 C 109.453 60.7896 109.318 60.6253 109.151 60.4995 L 108.953 60.3579 L 108.707 60.2164 C 108.613 60.1692 108.49 60.1032 108.329 60.0371 L 107.744 59.7635 L 107.073 59.4521 L 106.629 59.2257 L 106.318 59.037 C 106.226 58.9834 106.141 58.9202 106.063 58.8483 C 105.833 58.6575 105.652 58.415 105.534 58.1406 C 105.406 57.8427 105.342 57.5213 105.345 57.1971 C 105.327 56.901 105.379 56.6049 105.498 56.3327 C 105.616 56.0606 105.796 55.8201 106.025 55.6308 C 106.565 55.2189 107.235 55.0146 107.914 55.0553 C 108.261 55.053 108.607 55.0975 108.943 55.1874 C 109.325 55.2915 109.692 55.4404 110.039 55.6308 V 56.7159 L 109.869 56.6027 L 109.718 56.4894 C 109.18 56.1319 108.55 55.9384 107.904 55.9327 C 107.497 55.9094 107.092 56.0186 106.752 56.2441 C 106.615 56.3577 106.507 56.5029 106.438 56.6672 C 106.369 56.8315 106.341 57.0101 106.356 57.1877 C 106.345 57.363 106.373 57.5386 106.438 57.7018 C 106.504 57.8649 106.604 58.0116 106.733 58.1312 L 106.969 58.3199 L 107.234 58.4803 L 107.63 58.6784 L 108.207 58.9238 L 108.82 59.1879 L 109.264 59.405 L 109.595 59.6031 C 109.689 59.6597 109.784 59.7352 109.888 59.8107 C 110.142 60.0273 110.346 60.2981 110.482 60.6032 C 110.614 60.9333 110.678 61.2861 110.671 61.6411 Z');color:#0000ee;text-decoration:none;text-decoration-line:none;text-decoration-style:solid;text-decoration-color:#0000ee;display:inline;fill:#242833;stroke-width:3.03841;-webkit-text-fill-color:rgb(0, 0, 238);-webkit-text-stroke-color:rgb(0, 0, 238)"
     id="path24" />
  <path
     class="logo__text"
     fill="hsl(var(--color-black))"
     d="m 344.21792,168.45523 h -3.0141 v 25.31417 h 3.0141 z"
     style="d:path('M 114.232 55.3855 H 113.24 V 63.7169 H 114.232 V 55.3855 Z');color:#0000ee;text-decoration:none;text-decoration-line:none;text-decoration-style:solid;text-decoration-color:#0000ee;display:inline;fill:#242833;stroke-width:3.03841;-webkit-text-fill-color:rgb(0, 0, 238);-webkit-text-stroke-color:rgb(0, 0, 238)"
     id="path26" />
  <path
     class="logo__text"
     fill="hsl(var(--color-black))"
     d="m 372.76678,168.4841 v 2.63733 h -9.58313 v 22.64797 h -3.04145 v -22.64797 h -9.58313 v -2.63733 z"
     style="d:path('M 123.628 55.395 V 56.263 H 120.474 V 63.7169 H 119.473 V 56.263 H 116.319 V 55.395 H 123.628 Z');color:#0000ee;text-decoration:none;text-decoration-line:none;text-decoration-style:solid;text-decoration-color:#0000ee;display:inline;fill:#242833;stroke-width:3.03841;-webkit-text-fill-color:rgb(0, 0, 238);-webkit-text-stroke-color:rgb(0, 0, 238)"
     id="path28" />
  <path
     class="logo__text"
     fill="hsl(var(--color-black))"
     d="m 400,168.45523 -11.13575,14.30572 v 11.00845 h -3.01106 v -11.00845 l -10.64657,-14.30572 h 3.58835 l 8.66553,11.72551 9.12434,-11.72551 z"
     style="d:path('M 132.591 55.3855 L 128.926 60.0938 V 63.7169 H 127.935 V 60.0938 L 124.431 55.3855 H 125.612 L 128.464 59.2446 L 131.467 55.3855 H 132.591 Z');color:#0000ee;text-decoration:none;text-decoration-line:none;text-decoration-style:solid;text-decoration-color:#0000ee;display:inline;fill:#242833;stroke-width:3.03841;-webkit-text-fill-color:rgb(0, 0, 238);-webkit-text-stroke-color:rgb(0, 0, 238)"
     id="path30" />
</svg>
